<svg width="553" height="169" viewBox="0 0 553 169" fill="none" xmlns="http://www.w3.org/2000/svg">
<path fill-rule="evenodd" clip-rule="evenodd" d="M360.6 0.263468L361.1 77.2635L374.9 76.5635C382.4 76.1635 397.4 76.2635 408.1 76.7635C418.8 77.3635 434.6 78.4635 443.1 79.3635C451.6 80.1635 464.9 81.7635 472.6 82.8635C480.3 83.9635 492.7 85.9635 500.1 87.3635C507.5 88.7635 520.8 91.4635 529.6 93.3635C538.4 95.3635 547.2 97.4635 549.1 98.1635C551.6 98.9635 552.7 99.9635 552.8 101.563C553 102.763 552.5 104.063 551.8 104.363C551.2 104.663 542.7 103.063 533.1 100.863C523.5 98.6635 510.6 95.9635 504.6 94.8635C498.5 93.6635 484.4 91.4635 473.1 89.7635C461.8 88.1635 443.6 86.0635 432.6 85.2635C419.6 84.2635 403.6 83.7635 361.6 84.2635L360.6 168.263H192.6L192.3 139.763C192.2 124.063 191.7 110.963 191.3 110.563C190.9 110.263 185 110.563 178.1 111.363C171.2 112.063 154.3 113.263 140.6 113.863C125.2 114.563 102.9 114.763 82.6 114.363C64.4 114.063 42.2 113.263 33.1 112.663C24 112.163 14.1 111.263 11.1 110.763C8.1 110.363 4.9 110.363 4.1 110.863C3.2 111.363 2.1 111.263 1.3 110.463C0.6 109.763 0.1 108.563 0 107.763C0 106.963 0.8 105.563 1.7 104.763C3.1 103.463 4.9 103.463 15.5 104.563C22.1 105.263 37.3 106.263 49.1 106.763C60.9 107.263 84.8 107.763 102.1 107.763C119.4 107.763 141.9 107.263 152.1 106.663C162.3 106.063 175.3 105.063 191.6 103.263L191.8 52.7635C192 24.9635 192.3 1.66347 192.6 0.963468C193 -0.0365323 210.3 -0.236532 360.6 0.263468ZM196.9 53.9635C197.1 97.4635 197.2 100.763 198.8 101.463C199.8 101.763 204.6 101.363 209.6 100.363C214.5 99.3635 224.7 96.6635 232.1 94.1635C240.6 91.4635 247.9 88.3635 251.8 85.7635C255.3 83.5635 258.9 80.5635 259.8 79.1635C260.8 77.6635 262.4 76.1635 263.3 75.6635C264.6 75.0635 265.7 75.2635 267.1 76.4635C268.3 77.4635 269.2 78.5635 269.1 78.9635C269.1 79.4635 266.7 82.6635 263.8 86.1635C261 89.6635 257.6 94.6635 256.3 97.1635C255.1 99.6635 254.2 102.563 254.3 103.463C254.5 104.463 255.3 105.363 256.1 105.563C256.9 105.763 260.9 103.763 264.8 101.063C269.8 97.7635 273.5 94.2635 276.6 89.9635C279.1 86.5635 282.8 82.6635 284.8 81.2635C286.9 79.8635 290.6 78.3635 293.1 78.0635C295.6 77.7635 298.8 77.7635 300.3 78.1635C301.9 78.4635 304.2 79.9635 305.6 81.4635C307 83.0635 308.2 85.0635 308.1 85.9635C308.1 86.9635 307.5 87.7635 306.8 87.7635C306.2 87.8635 304.7 86.8635 303.6 85.7635C302.5 84.6635 300.5 83.7635 299.1 83.7635C297.7 83.7635 294.8 84.6635 292.6 85.6635C290.4 86.6635 287.1 89.0635 285.3 91.0635C283.6 93.1635 281.1 96.7635 279.8 99.2635C278.6 101.663 277.9 103.963 278.3 104.263C278.8 104.563 280.3 103.963 281.8 102.863C283.4 101.863 287.6 97.7635 291.3 93.8635C295.1 89.9635 298.7 86.7635 299.3 86.7635C300 86.6635 301.2 87.2635 301.8 87.9635C302.7 88.8635 302.8 91.0635 302.3 95.5635C301.7 100.763 301.9 101.763 303.1 101.763C303.9 101.863 308.6 98.8635 313.6 95.1635C318.5 91.5635 325.7 87.0635 329.6 85.2635C333.4 83.3635 339.3 81.1635 342.6 80.3635C345.9 79.4635 349.5 78.7635 350.6 78.7635C351.7 78.7635 353.2 78.3635 353.9 77.9635C354.9 77.4635 355.2 69.5635 355.3 42.2635C355.4 22.9635 355.2 6.66347 354.8 5.96347C354.3 5.06347 337.6 4.76347 276.8 4.76347C218.1 4.76347 199.2 5.06347 198.1 5.96347C196.9 6.96347 196.7 14.8635 196.9 53.9635ZM336.6 88.9635C333.3 90.3635 328.8 92.5635 326.6 93.9635C324.4 95.3635 319.4 99.0635 315.6 102.163C311.7 105.263 307.1 108.463 305.3 109.263C303.6 110.063 300.7 110.763 299.1 110.763C296.7 110.763 295.7 110.063 294.1 107.263L292.1 103.763C283.7 110.063 280.5 111.763 278.8 111.763C277.1 111.763 275.3 110.763 273.8 108.963C272.5 107.463 271.3 105.663 271.1 104.863C270.7 103.763 269.2 104.363 265.1 107.163C262.1 109.163 257.8 111.063 255.6 111.463C252.2 111.963 251.2 111.663 249.3 109.663C247.2 107.563 247 106.663 247.5 101.463C248 96.3635 247.9 95.8635 246.3 96.3635C245.4 96.6635 239.4 98.6635 233.1 100.763C226.8 102.863 216.4 105.563 210.1 106.763C203.8 108.063 198.3 109.563 197.9 110.163C197.5 110.763 197.1 122.463 197.1 136.263C197.1 155.163 197.4 161.563 198.3 162.563C199.3 163.563 215.8 163.763 276.8 163.763C337.6 163.763 354.3 163.463 354.8 162.463C355.2 161.863 355.4 144.163 355.3 123.263L355 85.2635C351.6 85.0635 348.8 85.2635 346.6 85.7635C344.4 86.1635 339.9 87.6635 336.6 88.9635ZM279.9 53.7635C280.3 53.7635 281.4 54.5635 282.4 55.5635C283.4 56.4635 284.2 57.8635 284.1 58.4635C284.1 59.1635 282 62.2635 279.3 65.2635C276.7 68.2635 274.1 70.7635 273.6 70.7635C273 70.7635 271.8 69.9635 270.8 68.9635C269.8 68.0635 269 66.7635 269 66.1635C268.9 65.6635 271.2 62.5635 274.1 59.4635C276.9 56.3635 279.6 53.7635 279.9 53.7635Z" fill="white"/>
</svg>
